<?xml version="1.0" encoding="UTF-8"?>
<svg width="125px" height="60px" viewBox="0 0 125 60" version="1.1" xmlns="http://www.w3.org/2000/svg" xmlns:xlink="http://www.w3.org/1999/xlink">
    <!-- Generator: Sketch 48.1 (47250) - http://www.bohemiancoding.com/sketch -->
    <title>Artboard</title>
    <desc>Created with Sketch.</desc>
    <defs></defs>
    <g stroke="none" stroke-width="1" fill="none" fill-rule="evenodd">
        <g fill="#333333" fill-rule="nonzero">
            <g>
                <path d="M72.3327245,7.01222449 C72.3455816,6.726 72.3397653,6.44191837 72.3137449,6.16304082 C72.0128265,2.90865306 68.6320102,0.900795918 65.8450714,1.35753061 C63.2393571,1.78426531 60.5938469,4.28957143 61.3352755,7.30763265 C61.9285408,9.72263265 64.0132347,13.2650816 66.3908878,14.2027347 C67.6361939,14.693449 69.678949,12.623449 70.4806837,11.7929388 C71.541398,10.6942653 72.2623163,8.56518367 72.3327245,7.01222449 M75.6746633,26.3998776 C76.2174184,27.1376327 76.766602,27.871102 77.3317041,28.5920204 C77.8867041,29.3000816 78.4775204,30.0249796 79.0508878,30.6904898 C82.0796633,34.2053878 86.5805816,38.468449 91.0925204,40.1279388 C95.253949,41.658551 98.7847653,38.888449 99.7475204,34.8056939 C101.212622,28.5938571 96.2837449,25.306102 91.4494592,22.7830408 C86.5867041,20.2449796 81.2558878,17.4314082 79.113949,12.0390612 C78.3636429,10.1499796 78.2084388,8.04477551 79.106602,6.17589796 C81.468949,1.26018367 87.2197653,-1.09328571 92.3837449,0.504979592 C93.606398,0.883346939 94.9462959,1.42946939 96.1536429,1.85987755 C97.2948673,2.26702041 98.2686429,2.80610204 98.9852755,1.08783673 C99.0728265,0.877836735 99.6734388,0.680387755 99.8209898,0.941510204 C100.00252,1.26263265 99.9281327,3.81263265 99.9284388,5.19967347 C99.9293571,8.40355102 99.9106837,7.41783673 99.9204796,10.6596735 C99.9220102,11.0931429 100.038031,14.1148776 99.5904796,14.1390612 C99.1022143,14.1656939 98.8658878,13.0651837 98.8377245,12.9390612 C98.0751735,9.50681633 97.4182347,5.7237551 94.7026224,3.16457143 C90.8298673,-0.485020408 82.3518061,1.74202041 82.634051,7.73253061 C82.7895612,11.0267143 86.0029286,12.7569184 88.716398,13.8200816 C95.4722143,16.4671224 103.284153,18.736102 104.9415,26.8321224 C106.469663,34.296 102.070071,42.8570204 93.3281327,43.2255918 C83.7697653,43.628449 77.133949,35.4353878 71.3476224,28.9391633 C71.1954796,28.7680408 71.0427245,28.5978367 70.8887449,28.4282449 C68.7605816,26.0818163 66.5962959,23.7592653 64.4883367,21.3972245 C63.5981327,20.3992653 62.4859898,19.4426327 61.1338469,20.2936531 C57.6226224,22.503551 56.3433367,27.6191633 56.7706837,31.5540612 C57.1815,35.3380408 59.6219082,38.4139592 63.2136429,39.8022245 C64.1687449,40.1714082 65.1807857,40.3832449 66.201398,40.456102 C69.6070102,40.698551 72.5568061,39.8120204 74.834051,37.3400816 C75.6988469,36.4012041 76.8501735,36.6598776 77.7073163,37.4557959 C78.1594592,37.8757959 78.8078265,38.4323265 78.3468061,39.0228367 C77.5037449,40.1019184 75.7172143,40.7190612 74.5012959,41.241 C74.2169082,41.3631429 73.9309898,41.4852857 73.6392551,41.5887551 C71.8407857,42.2264082 69.9605816,42.6277347 68.0644592,42.8297755 C64.2905816,43.2317143 60.3480306,42.8802857 56.7820102,41.5382449 C55.5305816,41.0671224 54.3235408,40.4674286 53.2202755,39.7100816 C52.574051,39.2668163 52.3459898,39.486 51.8920102,39.8530408 C47.5515,43.3630408 41.1122143,43.7671224 35.8386429,42.7183469 C30.2408878,41.6055918 25.8657857,38.0827347 22.926398,33.2763061 C19.1056837,27.0286531 18.7254796,20.2569184 21.1386429,13.3532449 C25.3429286,1.32722449 38.4103776,-1.50287755 46.7892551,0.806204082 C48.2595612,1.21120408 49.7191531,1.66885714 51.1554796,2.18161224 C52.4411939,2.64018367 53.3237449,2.67630612 53.9678265,1.4104898 C54.1187449,1.11416327 54.3911939,0.882734694 54.7288469,0.999673469 C55.0707857,1.11814286 55.0524184,1.49344898 55.0524184,1.78426531 L55.0524184,11.8266122 C55.0524184,12.1333469 55.1500714,14.2305918 54.7441531,14.2703878 C54.348949,14.3089592 54.183949,13.915898 54.0719082,13.6382449 C53.3874184,11.9383469 53.1673163,8.98395918 52.3750714,7.33579592 C49.6530306,1.67191837 44.7067041,0.744979592 38.9421122,1.77508163 C33.5362959,2.74120408 29.1657857,8.56334694 28.0475204,13.6514082 C27.1322143,17.9447755 26.6620102,23.5403878 27.6948673,27.8349796 C29.2643571,37.4248776 37.4794592,42.4556939 46.6998673,39.8873265 C49.3061939,39.1615102 50.876602,37.2387551 50.0344592,34.6318163 C48.111398,28.6783469 50.9072143,24.3776327 55.7800714,21.1406939 C56.6347653,20.5731429 57.4821122,20.0420204 58.3965,19.5782449 C59.1465,19.1977347 60.1655816,18.7648776 60.5375204,17.9481429 C60.9198673,17.1075306 60.0186429,16.3192653 59.534051,15.756 C58.3410918,14.3689592 57.4469082,12.6969184 56.8701735,10.9630408 C55.6438469,7.27640816 56.9800714,3.47191837 60.4144592,1.70436735 C64.761398,-0.533081633 69.2892551,-0.56277551 73.6049694,1.76926531 C76.919051,3.56008163 78.1732347,7.69242857 76.1271122,10.926 C75.1043571,12.5423265 73.3309898,13.4212041 71.6809898,14.2612041 C70.7007857,14.7601837 68.358949,15.6626327 68.6231327,17.1069184 C68.6231327,17.1069184 68.6231327,17.1069184 68.6231327,17.1072245 C68.7477245,17.7877347 69.2280306,18.2946735 69.6872143,18.8640612 L70.146398,19.433449"></path>
                <path d="M6.17712245,59.4522551 C6.74283673,59.0916429 7.19681633,58.4907245 7.53906122,57.6495 L7.09089796,57.4342959 C6.99508163,57.6975612 6.87171429,57.9406224 6.7204898,58.1637857 C6.56926531,58.386949 6.39385714,58.5862347 6.19487755,58.7616429 C5.99589796,58.9290918 5.76079592,59.0634796 5.49018367,59.1654184 C5.21957143,59.267051 4.92293878,59.3178673 4.60028571,59.3178673 C4.17018367,59.3178673 3.78110204,59.222051 3.43273469,59.0304184 C3.08436735,58.8390918 2.78283673,58.5736837 2.52814286,58.2348061 C2.27314286,57.8916429 2.07691837,57.4936837 1.93977551,57.0409286 C1.80232653,56.5881735 1.7337551,56.0907245 1.7337551,55.5479694 C1.7337551,54.9338878 1.79926531,54.3773571 1.93059184,53.8786837 C2.06191837,53.3800102 2.24314286,52.9691939 2.47426531,52.6459286 C2.71702041,52.3110306 3.00477551,52.0575612 3.33691837,51.8861327 C3.66936735,51.7147041 4.0287551,51.6286837 4.41508163,51.6286837 C4.75334694,51.6286837 5.05395918,51.7055204 5.31661224,51.8588878 C5.57926531,52.0125612 5.80640816,52.2247041 5.99742857,52.4956224 C6.16855102,52.7350102 6.31793878,53.027051 6.44528571,53.3717449 C6.57263265,53.7164388 6.66844898,54.0363367 6.73212245,54.3311327 L7.22222449,54.3311327 L7.16865306,51.3060306 L6.69018367,51.3060306 L6.44528571,51.7125612 C6.13855102,51.5252143 5.81589796,51.3798061 5.47763265,51.2760306 C5.13906122,51.1725612 4.76069388,51.1205204 4.34283673,51.1205204 C3.78110204,51.1205204 3.25365306,51.2282755 2.75957143,51.4437857 C2.26579592,51.6592959 1.83783673,51.9641939 1.47538776,52.3590918 C1.10895918,52.7579694 0.822428571,53.2336837 0.615183673,53.7859286 C0.408244898,54.3384796 0.30477551,54.9537857 0.30477551,55.6318469 C0.30477551,56.3099082 0.410081633,56.9190918 0.621306122,57.4597041 C0.83222449,58.0000102 1.11508163,58.4576633 1.46957143,58.8326633 C1.82804082,59.2076633 2.23916327,59.4948061 2.7032449,59.6940918 C3.16732653,59.8936837 3.65222449,59.9934796 4.15793878,59.9934796 C4.93855102,59.9934796 5.61140816,59.8128673 6.17712245,59.4522551 Z M17.0539592,59.3656224 C16.9541633,59.3616429 16.8304898,59.3408265 16.6832449,59.3028673 C16.5356939,59.2649082 16.416,59.2180714 16.3244694,59.1623571 C16.1888571,59.0705204 16.0832449,58.9768469 16.0076327,58.8813367 C15.9317143,58.7855204 15.8640612,58.6600102 15.8043673,58.5045 L12.976102,51.1863367 L12.4979388,51.1863367 C12.0953878,52.2228673 11.6368163,53.4045 11.1228367,54.7318469 C10.608551,56.0591939 10.1380408,57.2549082 9.71161224,58.3192959 C9.62804082,58.5265408 9.54232653,58.6890918 9.45446939,58.8066429 C9.36691837,58.9241939 9.2432449,59.0368469 9.08406122,59.1442959 C8.98426531,59.2082755 8.85661224,59.2590918 8.70140816,59.2967449 C8.54589796,59.3347041 8.41640816,59.3576633 8.31263265,59.3656224 L8.31263265,59.7902143 L11.5079388,59.7902143 L11.5079388,59.3656224 C11.1929388,59.3497041 10.9097755,59.2979694 10.6587551,59.2101122 C10.4077347,59.1225612 10.2819184,58.9988878 10.2819184,58.839398 C10.2819184,58.7717449 10.2920204,58.6838878 10.3119184,58.5764388 C10.3318163,58.4686837 10.3679388,58.3290918 10.4196735,58.1576633 C10.4756939,57.9825612 10.538449,57.7912347 10.6082449,57.5836837 C10.6783469,57.3767449 10.7689592,57.1333776 10.8806939,56.8545 L13.8589592,56.8545 L14.5618163,58.7558265 C14.5774286,58.7956224 14.5893673,58.8415408 14.5973265,58.8932755 C14.6052857,58.9450102 14.6095714,58.9887857 14.6095714,59.0249082 C14.6095714,59.1124592 14.5067143,59.1862347 14.3016122,59.2459286 C14.0962041,59.3056224 13.8381429,59.3457245 13.5274286,59.3656224 L13.5274286,59.7902143 L17.0539592,59.7902143 L17.0539592,59.3656224 Z M11.0888571,56.3221531 L12.3555918,53.0298061 L13.6406939,56.3221531 L11.0888571,56.3221531 Z M25.1156939,51.3060306 L17.7197755,51.3060306 L17.7197755,53.6077653 L18.1382449,53.6077653 C18.1740612,53.4764388 18.2377347,53.3099082 18.3295714,53.1084796 C18.421102,52.9073571 18.5267143,52.716949 18.6464082,52.5375612 C18.766102,52.3581735 18.8965102,52.1977653 19.0379388,52.0563367 C19.1793673,51.9149082 19.3162041,51.8362347 19.4475306,51.8200102 C19.6149796,51.8001122 19.7903878,51.7872551 19.9737551,51.7811327 C20.1571224,51.7753163 20.3104898,51.7722551 20.4341633,51.7722551 L20.781,51.7722551 L20.781,58.6122551 C20.781,58.7757245 20.7500816,58.9061327 20.6882449,59.0037857 C20.6264082,59.1014388 20.5296735,59.1764388 20.3983469,59.2281735 C20.3104898,59.2639898 20.1522245,59.2936837 19.9229388,59.3178673 C19.6936531,59.3417449 19.5231429,59.3576633 19.4117143,59.3656224 L19.4117143,59.7902143 L23.4176327,59.7902143 L23.4176327,59.3656224 C23.2899796,59.3616429 23.1118163,59.3356224 22.8825306,59.2878673 C22.6532449,59.2401122 22.5029388,59.2021531 22.431,59.1742959 C22.2914082,59.1142959 22.1940612,59.0298061 22.1380408,58.9202143 C22.0823265,58.8106224 22.0544694,58.6900102 22.0544694,58.5583776 L22.0544694,51.7722551 L22.4019184,51.7722551 C22.5617143,51.7722551 22.7355918,51.7762347 22.9232449,51.7841939 C23.1112041,51.7921531 23.2667143,51.8040918 23.3906939,51.8200102 C23.5226327,51.8402143 23.6594694,51.9188878 23.8012041,52.0563367 C23.9429388,52.1937857 24.0739592,52.3541939 24.1936531,52.5375612 C24.3096735,52.7129694 24.4143673,52.899398 24.5083469,53.0965408 C24.6023265,53.2939898 24.6672245,53.4641939 24.7030408,53.6077653 L25.1156939,53.6077653 L25.1156939,51.3060306 Z M31.3507959,55.4374592 C31.1297755,55.3058265 30.8995714,55.1882755 30.6601837,55.0845 C30.3972245,54.9690918 30.1250816,54.8604184 29.8440612,54.7587857 C29.5630408,54.6571531 29.2771224,54.5365408 28.9863061,54.396949 C28.6593673,54.2417449 28.4101837,54.0433776 28.2387551,53.8021531 C28.0673265,53.5609286 27.9816122,53.2572551 27.9816122,52.8902143 C27.9816122,52.5397041 28.1150816,52.2427653 28.3823265,51.999398 C28.6492653,51.7563367 28.9722245,51.6348061 29.350898,51.6348061 C29.7096735,51.6348061 30.0124286,51.7036837 30.2597755,51.8411327 C30.5068163,51.9785816 30.7162041,52.1628673 30.8876327,52.3939898 C31.0627347,52.6333776 31.2053878,52.9003163 31.3149796,53.1954184 C31.4245714,53.4902143 31.5231429,53.7990918 31.611,54.122051 L32.0952857,54.122051 L32.0475306,51.3060306 L31.5690612,51.3060306 L31.3238571,51.7125612 C31.0688571,51.5530714 30.7869184,51.4134796 30.4780408,51.2940918 C30.1688571,51.174398 29.8192653,51.1147041 29.4286531,51.1147041 C29.0857959,51.1147041 28.7570204,51.1734796 28.4420204,51.2910306 C28.1273265,51.4085816 27.8539592,51.5708265 27.6228367,51.7780714 C27.3797755,51.9972551 27.1924286,52.2464388 27.061102,52.5253163 C26.9294694,52.8041939 26.8636531,53.1051122 26.8636531,53.4277653 C26.8636531,53.9895 26.9962041,54.4450102 27.2613061,54.7936837 C27.5264082,55.1423571 27.8980408,55.4242959 28.3762041,55.6395 C28.6192653,55.7506224 28.908551,55.8687857 29.2431429,55.9936837 C29.5780408,56.1185816 29.8749796,56.2327653 30.1342653,56.3359286 C30.5126327,56.4877653 30.7979388,56.7103163 30.9892653,57.0035816 C31.1805918,57.2968469 31.276102,57.6133776 31.276102,57.9525612 C31.276102,58.1839898 31.2451837,58.3884796 31.1833469,58.5660306 C31.1215102,58.7438878 31.0269184,58.8984796 30.8995714,59.0301122 C30.7719184,59.162051 30.6053878,59.2636837 30.4002857,59.3356224 C30.1948776,59.4075612 29.9548776,59.4433776 29.6796735,59.4433776 C29.3129388,59.4433776 28.9912041,59.3735816 28.7141633,59.2339898 C28.4371224,59.094398 28.1949796,58.9073571 27.9877347,58.671949 C27.768551,58.4209286 27.5919184,58.1509286 27.458449,57.861949 C27.3249796,57.5729694 27.2083469,57.2490918 27.1088571,56.8903163 L26.6245714,56.8903163 L26.7081429,59.7960306 L27.1866122,59.7960306 L27.4437551,59.3595 C27.7186531,59.526949 28.0452857,59.669602 28.4242653,59.7871531 C28.8029388,59.9047041 29.1813061,59.9634796 29.5602857,59.9634796 C30.3813061,59.9634796 31.0688571,59.7204184 31.6229388,59.2339898 C32.1770204,58.7478673 32.4540612,58.1301122 32.4540612,57.3804184 C32.4540612,57.0657245 32.4112041,56.789602 32.3254898,56.5523571 C32.2397755,56.3154184 32.1072245,56.0971531 31.9278367,55.8978673 C31.7643673,55.7224592 31.5721224,55.5687857 31.3507959,55.4374592 Z M46.293551,54.4150102 L43.0948776,54.4150102 L43.0948776,54.839602 C43.4215102,54.9072551 43.6777347,54.9779694 43.8632449,55.0517449 C44.048449,55.1255204 44.1412041,55.2262347 44.1412041,55.3535816 C44.1412041,55.6407245 44.0677347,55.9725612 43.9207959,56.3490918 C43.773551,56.7259286 43.5672245,57.1275612 43.300898,57.5539898 C42.9702857,57.1514388 42.625898,56.7418469 42.2674286,56.3252143 C41.9092653,55.9088878 41.5428367,55.4472551 41.168449,54.9412347 C41.6891633,54.6660306 42.0975306,54.3562347 42.393551,54.0115408 C42.6895714,53.6665408 42.8377347,53.2551122 42.8377347,52.7766429 C42.8377347,52.5773571 42.801,52.3780714 42.7272245,52.1787857 C42.653449,51.9795 42.5466122,51.8040918 42.4073265,51.6525612 C42.2557959,51.489398 42.0595714,51.3568469 41.8183469,51.2552143 C41.5771224,51.1535816 41.2970204,51.1027653 40.9783469,51.1027653 C40.7071224,51.1027653 40.4401837,51.1465408 40.1772245,51.2340918 C39.9139592,51.321949 39.6907959,51.4434796 39.5074286,51.5989898 C39.3081429,51.7704184 39.153551,51.9706224 39.0439592,52.1999082 C38.9343673,52.4288878 38.8795714,52.6811327 38.8795714,52.9560306 C38.8795714,53.3426633 38.9692653,53.6916429 39.1486531,54.0023571 C39.3280408,54.3133776 39.5793673,54.681949 39.9020204,55.1086837 C39.188449,55.5589898 38.701102,55.9845 38.4402857,56.3849082 C38.1791633,56.7856224 38.0487551,57.2331735 38.0487551,57.7272551 C38.0487551,58.1258265 38.1203878,58.4686837 38.2639592,58.7558265 C38.4072245,59.0426633 38.5945714,59.2780714 38.826,59.4611327 C39.0650816,59.6484796 39.3301837,59.7850102 39.621,59.8707245 C39.9121224,59.9564388 40.2050816,59.9992959 40.4998776,59.9992959 C40.7830408,59.9992959 41.0291633,59.9653163 41.2382449,59.8976633 C41.4476327,59.8300102 41.6557959,59.7363367 41.8630408,59.6166429 C42.0503878,59.5052143 42.2288571,59.3726633 42.398449,59.2189898 C42.5677347,59.0656224 42.7180408,58.9171531 42.8496735,58.7735816 L43.7404898,59.7902143 L46.2038571,59.7902143 L46.2038571,59.3656224 C46.0168163,59.3576633 45.7768163,59.3218469 45.4841633,59.2578673 C45.1915102,59.1941939 44.9652857,59.1164388 44.806102,59.0249082 C44.6429388,58.9251122 44.4457959,58.7625612 44.2146735,58.5375612 C43.9838571,58.3122551 43.788551,58.1040918 43.6293673,57.9127653 C43.8243673,57.6657245 43.983551,57.4183776 44.1069184,57.1713367 C44.2302857,56.9242959 44.3515102,56.6729694 44.470898,56.4179694 C44.5902857,56.1629694 44.6925306,55.9416429 44.7782449,55.7542959 C44.8636531,55.566949 44.948449,55.4255204 45.0320204,55.3297041 C45.1596735,55.1705204 45.3430408,55.0538878 45.5821224,54.9801122 C45.8212041,54.9063367 46.058449,54.8595 46.293551,54.839602 L46.293551,54.4150102 Z M41.7956939,53.8379694 C41.6150816,54.107051 41.3202857,54.3571531 40.9116122,54.5882755 C40.6088571,54.1897041 40.386,53.8499082 40.2427347,53.5688878 C40.0991633,53.2878673 40.0275306,53.0099082 40.0275306,52.7350102 C40.0275306,52.6352143 40.0455918,52.5216429 40.0814082,52.3939898 C40.1169184,52.2666429 40.1747755,52.146949 40.2540612,52.0352143 C40.3416122,51.9198061 40.4469184,51.8239898 40.5702857,51.7483776 C40.6933469,51.6727653 40.8482449,51.6348061 41.0349796,51.6348061 C41.3649796,51.6348061 41.6193673,51.7434796 41.7981429,51.9605204 C41.9769184,52.1778673 42.0666122,52.4898061 42.0666122,52.8963367 C42.0666122,53.2551122 41.976,53.5688878 41.7956939,53.8379694 Z M41.8422245,58.9740918 C41.5612041,59.099602 41.2752857,59.1623571 40.9841633,59.1623571 C40.4662041,59.1623571 40.0526327,58.9838878 39.7437551,58.6272551 C39.4345714,58.2706224 39.2802857,57.8209286 39.2802857,57.2787857 C39.2802857,56.8924592 39.3470204,56.5486837 39.4804898,56.2474592 C39.6139592,55.9465408 39.8423265,55.6845 40.1652857,55.4613367 C40.4441633,55.8479694 40.8157959,56.3212347 41.2801837,56.8814388 C41.7445714,57.4413367 42.1621224,57.9565408 42.5328367,58.4267449 C42.353449,58.6661327 42.1232449,58.8482755 41.8422245,58.9740918 Z M56.2556939,55.4374592 C56.0346735,55.3058265 55.8044694,55.1882755 55.5653878,55.0845 C55.3021224,54.9690918 55.0302857,54.8604184 54.7492653,54.7587857 C54.4682449,54.6571531 54.1820204,54.5365408 53.8912041,54.396949 C53.5642653,54.2417449 53.3150816,54.0433776 53.1436531,53.8021531 C52.9722245,53.5609286 52.8868163,53.2572551 52.8868163,52.8902143 C52.8868163,52.5397041 53.0202857,52.2427653 53.2872245,51.999398 C53.5541633,51.7563367 53.8771224,51.6348061 54.2557959,51.6348061 C54.6145714,51.6348061 54.9176327,51.7036837 55.1646735,51.8411327 C55.4117143,51.9785816 55.621102,52.1628673 55.7925306,52.3939898 C55.9679388,52.6333776 56.1102857,52.9003163 56.2198776,53.1954184 C56.3294694,53.4902143 56.4283469,53.7990918 56.515898,54.122051 L57.0001837,54.122051 L56.9524286,51.3060306 L56.4739592,51.3060306 L56.2290612,51.7125612 C55.9737551,51.5530714 55.6918163,51.4134796 55.3829388,51.2940918 C55.0740612,51.174398 54.7241633,51.1147041 54.333551,51.1147041 C53.9906939,51.1147041 53.6619184,51.1734796 53.3472245,51.2910306 C53.0322245,51.4085816 52.7591633,51.5708265 52.5280408,51.7780714 C52.2846735,51.9972551 52.0976327,52.2464388 51.966,52.5253163 C51.8343673,52.8041939 51.768551,53.1051122 51.768551,53.4277653 C51.768551,53.9895 51.901102,54.4450102 52.1662041,54.7936837 C52.4313061,55.1423571 52.8029388,55.4242959 53.2814082,55.6395 C53.5244694,55.7506224 53.813449,55.8687857 54.1483469,55.9936837 C54.4829388,56.1185816 54.7798776,56.2327653 55.0391633,56.3359286 C55.4178367,56.4877653 55.7028367,56.7103163 55.8941633,57.0035816 C56.0854898,57.2968469 56.181,57.6133776 56.181,57.9525612 C56.181,58.1839898 56.1500816,58.3884796 56.088551,58.5660306 C56.0267143,58.7438878 55.9318163,58.8984796 55.8044694,59.0301122 C55.6768163,59.162051 55.5102857,59.2636837 55.3051837,59.3356224 C55.0997755,59.4075612 54.8597755,59.4433776 54.5848776,59.4433776 C54.2178367,59.4433776 53.896102,59.3735816 53.6190612,59.2339898 C53.3420204,59.094398 53.0998776,58.9073571 52.8926327,58.671949 C52.673449,58.4209286 52.4971224,58.1509286 52.3636531,57.861949 C52.2298776,57.5729694 52.1132449,57.2490918 52.0137551,56.8903163 L51.5294694,56.8903163 L51.6130408,59.7960306 L52.0915102,59.7960306 L52.3486531,59.3595 C52.623551,59.526949 52.9504898,59.669602 53.3291633,59.7871531 C53.7078367,59.9047041 54.0865102,59.9634796 54.4651837,59.9634796 C55.2862041,59.9634796 55.9737551,59.7204184 56.5278367,59.2339898 C57.0819184,58.7478673 57.3589592,58.1301122 57.3589592,57.3804184 C57.3589592,57.0657245 57.316102,56.789602 57.2303878,56.5523571 C57.1446735,56.3154184 57.0121224,56.0971531 56.8327347,55.8978673 C56.6692653,55.7224592 56.4770204,55.5687857 56.2556939,55.4374592 Z M68.063449,59.3656224 C67.9636531,59.3616429 67.8271224,59.3417449 67.6538571,59.3056224 C67.4805918,59.2698061 67.3599796,59.2339898 67.2920204,59.1981735 C67.1567143,59.1265408 67.0657959,59.0426633 67.0201837,58.9471531 C66.9742653,58.8513367 66.9513061,58.7337857 66.9513061,58.5941939 L66.9513061,52.4778673 C66.9513061,52.3462347 66.9742653,52.2247041 67.0201837,52.1129694 C67.0657959,52.0015408 67.1567143,51.9216429 67.2920204,51.8738878 C67.3719184,51.8460306 67.4925306,51.8163367 67.6538571,51.7841939 C67.8151837,51.7523571 67.9517143,51.734602 68.063449,51.7303163 L68.063449,51.3060306 L64.5418163,51.3060306 L64.5418163,51.7303163 C64.6532449,51.7385816 64.7857959,51.7624592 64.9394694,51.8022551 C65.0928367,51.842051 65.223551,51.8879694 65.331,51.9397041 C65.4586531,51.999398 65.5483469,52.0823571 65.6000816,52.1879694 C65.6518163,52.2935816 65.6778367,52.4102143 65.6778367,52.5375612 L65.6778367,55.1086837 L61.6899796,55.1086837 L61.6899796,52.4778673 C61.6899796,52.3462347 61.7126327,52.2247041 61.758551,52.1129694 C61.8044694,52.0015408 61.8950816,51.9216429 62.0306939,51.8738878 C62.1102857,51.8460306 62.230898,51.8163367 62.3925306,51.7841939 C62.5538571,51.7523571 62.6903878,51.734602 62.8018163,51.7303163 L62.8018163,51.3060306 L59.2804898,51.3060306 L59.2804898,51.7303163 C59.3919184,51.7385816 59.5244694,51.7624592 59.6778367,51.8022551 C59.8312041,51.842051 59.9619184,51.8879694 60.0696735,51.9397041 C60.1970204,51.999398 60.2867143,52.0823571 60.3387551,52.1879694 C60.3904898,52.2935816 60.4162041,52.4102143 60.4162041,52.5375612 L60.4162041,58.6600102 C60.4162041,58.8155204 60.3883469,58.941949 60.3326327,59.039602 C60.2769184,59.1375612 60.1890612,59.2101122 60.0696735,59.2578673 C60.0017143,59.2900102 59.8771224,59.3138878 59.695898,59.3298061 C59.5143673,59.3457245 59.376,59.3576633 59.2804898,59.3656224 L59.2804898,59.7902143 L62.8018163,59.7902143 L62.8018163,59.3656224 C62.7023265,59.3616429 62.5657959,59.3417449 62.3925306,59.3056224 C62.2189592,59.2698061 62.0983469,59.2339898 62.0306939,59.1981735 C61.8950816,59.1265408 61.8044694,59.0426633 61.758551,58.9471531 C61.7126327,58.8513367 61.6899796,58.7337857 61.6899796,58.5941939 L61.6899796,55.6407245 L65.6778367,55.6407245 L65.6778367,58.6600102 C65.6778367,58.8155204 65.6499796,58.941949 65.5942653,59.039602 C65.5382449,59.1375612 65.4506939,59.2101122 65.331,59.2578673 C65.2633469,59.2900102 65.1387551,59.3138878 64.9572245,59.3298061 C64.776,59.3457245 64.6376327,59.3576633 64.5418163,59.3656224 L64.5418163,59.7902143 L68.063449,59.7902143 L68.063449,59.3656224 Z M76.8188571,57.2907245 C76.7628367,57.474398 76.6342653,57.7603163 76.4331429,58.1487857 C76.2317143,58.5375612 76.0394694,58.8274592 75.856102,59.0187857 C75.788449,59.0904184 75.6739592,59.1473571 75.5123265,59.1892959 C75.351,59.2309286 75.1945714,59.2600102 75.0430408,59.2759286 C74.8954898,59.2918469 74.7142653,59.2998061 74.4990612,59.2998061 L73.9786531,59.2998061 C73.6477347,59.2998061 73.3927347,59.2887857 73.2133469,59.267051 C73.0339592,59.2450102 72.8925306,59.1963367 72.7890612,59.1207245 C72.6852857,59.0451122 72.6154898,58.9336837 72.5796735,58.7864388 C72.5438571,58.6391939 72.5257959,58.4383776 72.5257959,58.1836837 L72.5257959,55.6407245 L73.4824286,55.6407245 C73.7417143,55.6407245 73.9498776,55.664602 74.1072245,55.7123571 C74.2648776,55.7601122 74.4053878,55.8617449 74.5287551,56.0172551 C74.6043673,56.1130714 74.6772245,56.2676633 74.7470204,56.4807245 C74.8168163,56.6940918 74.8596735,56.8961327 74.8755918,57.0874592 L75.3240612,57.0874592 L75.3240612,53.7632755 L74.8755918,53.7632755 C74.8556939,53.9347041 74.8146735,54.1171531 74.7531429,54.3103163 C74.6913061,54.5037857 74.6166122,54.6580714 74.5287551,54.7737857 C74.4213061,54.909398 74.2967143,55.0058265 74.1552857,55.0636837 C74.013551,55.1215408 73.7894694,55.1503163 73.4824286,55.1503163 L72.5257959,55.1503163 L72.5257959,51.7783776 L73.8592653,51.7783776 C74.078449,51.7783776 74.2737551,51.7823571 74.4451837,51.7903163 C74.6166122,51.7982755 74.7638571,51.8102143 74.8875306,51.8261327 C75.1266122,51.8579694 75.3788571,52.044398 75.6439592,52.3851122 C75.9090612,52.7258265 76.0814082,53.0478673 76.161,53.3506224 L76.6094694,53.3506224 L76.6094694,51.3060306 L70.0446735,51.3060306 L70.0446735,51.7303163 C70.1521224,51.7385816 70.2966122,51.7624592 70.4781429,51.8022551 C70.6593673,51.842051 70.8038571,51.8879694 70.9116122,51.9397041 C71.050898,52.0033776 71.1427347,52.0863367 71.1865102,52.1879694 C71.2302857,52.289602 71.2523265,52.4059286 71.2523265,52.5375612 L71.2523265,58.6361327 C71.2523265,58.7836837 71.2275306,58.9052143 71.1776327,59.0007245 C71.1277347,59.0965408 71.0389592,59.1742959 70.9116122,59.2339898 C70.8519184,59.2618469 70.7221224,59.2887857 70.5228367,59.3148061 C70.323551,59.3408265 70.1640612,59.3576633 70.0446735,59.3656224 L70.0446735,59.7902143 L77.0879388,59.7902143 L77.2492653,57.2907245 L76.8188571,57.2907245 Z M84.7281429,51.876949 C84.235898,51.4964388 83.5951837,51.3060306 82.806,51.3060306 L78.9314082,51.3060306 L78.9314082,51.7303163 C79.0391633,51.7385816 79.1677347,51.7532755 79.3171224,51.7753163 C79.4665102,51.7973571 79.6171224,51.8340918 79.7686531,51.8858265 C79.915898,51.9418469 80.0095714,52.0254184 80.0496735,52.1371531 C80.0894694,52.2485816 80.1093673,52.3740918 80.1093673,52.5136837 L80.1093673,58.6361327 C80.1093673,58.7916429 80.0824286,58.9192959 80.028551,59.0187857 C79.9749796,59.1185816 79.8880408,59.1941939 79.7686531,59.2459286 C79.6967143,59.2780714 79.5702857,59.3037857 79.3887551,59.3236837 C79.2075306,59.3435816 79.0691633,59.3576633 78.9733469,59.3656224 L78.9733469,59.7902143 L82.6146735,59.7902143 L82.6146735,59.3656224 C82.4631429,59.3616429 82.2966122,59.3475612 82.1153878,59.3236837 C81.9338571,59.2998061 81.8074286,59.2737857 81.7354898,59.2459286 C81.5922245,59.1902143 81.4973265,59.109398 81.4517143,59.0037857 C81.4057959,58.8981735 81.3828367,58.7757245 81.3828367,58.6361327 L81.3828367,56.0653163 L82.3336531,56.0653163 C82.7401837,56.0653163 83.1246735,56.0132755 83.4874286,55.9098061 C83.8501837,55.8060306 84.1829388,55.6428673 84.486,55.419398 C84.7927347,55.1962347 85.0330408,54.9142959 85.2063061,54.5732755 C85.3798776,54.2325612 85.4665102,53.8410306 85.4665102,53.3986837 C85.4665102,52.7647041 85.2203878,52.2574592 84.7281429,51.876949 Z M83.0420204,55.3447041 C82.7729388,55.4781735 82.4233469,55.5449082 81.9926327,55.5449082 L81.3828367,55.5449082 L81.3828367,51.7961327 L82.225898,51.7961327 C82.5647755,51.7961327 82.8476327,51.8481735 83.0747755,51.9516429 C83.3022245,52.0554184 83.4852857,52.2008265 83.6248776,52.3881735 C83.7565102,52.5635816 83.8492653,52.7686837 83.9031429,53.0040918 C83.9567143,53.2391939 83.9836531,53.4703163 83.9836531,53.6974592 C83.9836531,53.8609286 83.9616122,54.0452143 83.9178367,54.2506224 C83.8740612,54.4560306 83.7843673,54.6540918 83.6487551,54.8454184 C83.513449,55.0447041 83.311102,55.2112347 83.0420204,55.3447041 Z M96.0813061,59.3656224 C95.9815102,59.3616429 95.8449796,59.3417449 95.6717143,59.3056224 C95.498449,59.2698061 95.3778367,59.2339898 95.3098776,59.1981735 C95.1745714,59.1265408 95.0836531,59.0426633 95.0380408,58.9471531 C94.9921224,58.8513367 94.9691633,58.7337857 94.9691633,58.5941939 L94.9691633,52.4778673 C94.9691633,52.3462347 94.9921224,52.2247041 95.0380408,52.1129694 C95.0836531,52.0015408 95.1745714,51.9216429 95.3098776,51.8738878 C95.3897755,51.8460306 95.5103878,51.8163367 95.6717143,51.7841939 C95.8330408,51.7523571 95.9695714,51.734602 96.0813061,51.7303163 L96.0813061,51.3060306 L92.5596735,51.3060306 L92.5596735,51.7303163 C92.671102,51.7385816 92.8036531,51.7624592 92.9573265,51.8022551 C93.1106939,51.842051 93.2414082,51.8879694 93.3488571,51.9397041 C93.4765102,51.999398 93.5662041,52.0823571 93.6179388,52.1879694 C93.6696735,52.2935816 93.6956939,52.4102143 93.6956939,52.5375612 L93.6956939,55.1086837 L89.7078367,55.1086837 L89.7078367,52.4778673 C89.7078367,52.3462347 89.7304898,52.2247041 89.7764082,52.1129694 C89.8223265,52.0015408 89.9129388,51.9216429 90.048551,51.8738878 C90.1281429,51.8460306 90.2487551,51.8163367 90.4103878,51.7841939 C90.5717143,51.7523571 90.7082449,51.734602 90.8196735,51.7303163 L90.8196735,51.3060306 L87.2983469,51.3060306 L87.2983469,51.7303163 C87.4097755,51.7385816 87.5423265,51.7624592 87.6956939,51.8022551 C87.8490612,51.842051 87.9797755,51.8879694 88.0875306,51.9397041 C88.2148776,51.999398 88.3045714,52.0823571 88.3566122,52.1879694 C88.4083469,52.2935816 88.4340612,52.4102143 88.4340612,52.5375612 L88.4340612,58.6600102 C88.4340612,58.8155204 88.4062041,58.941949 88.3504898,59.039602 C88.2947755,59.1375612 88.2069184,59.2101122 88.0875306,59.2578673 C88.0195714,59.2900102 87.8949796,59.3138878 87.7137551,59.3298061 C87.5322245,59.3457245 87.3938571,59.3576633 87.2983469,59.3656224 L87.2983469,59.7902143 L90.8196735,59.7902143 L90.8196735,59.3656224 C90.7201837,59.3616429 90.5836531,59.3417449 90.4103878,59.3056224 C90.2368163,59.2698061 90.1162041,59.2339898 90.048551,59.1981735 C89.9129388,59.1265408 89.8223265,59.0426633 89.7764082,58.9471531 C89.7304898,58.8513367 89.7078367,58.7337857 89.7078367,58.5941939 L89.7078367,55.6407245 L93.6956939,55.6407245 L93.6956939,58.6600102 C93.6956939,58.8155204 93.6678367,58.941949 93.6121224,59.039602 C93.556102,59.1375612 93.468551,59.2101122 93.3488571,59.2578673 C93.2812041,59.2900102 93.1566122,59.3138878 92.9750816,59.3298061 C92.7938571,59.3457245 92.6554898,59.3576633 92.5596735,59.3656224 L92.5596735,59.7902143 L96.0813061,59.7902143 L96.0813061,59.3656224 Z M104.836714,57.2907245 C104.780694,57.474398 104.652122,57.7603163 104.451,58.1487857 C104.249571,58.5375612 104.057327,58.8274592 103.873959,59.0187857 C103.806306,59.0904184 103.691816,59.1473571 103.530184,59.1892959 C103.368857,59.2309286 103.212429,59.2600102 103.060898,59.2759286 C102.913347,59.2918469 102.732122,59.2998061 102.516918,59.2998061 L101.99651,59.2998061 C101.665592,59.2998061 101.410592,59.2887857 101.231204,59.267051 C101.051816,59.2450102 100.910388,59.1963367 100.806918,59.1207245 C100.703143,59.0451122 100.633347,58.9336837 100.597531,58.7864388 C100.561714,58.6391939 100.543653,58.4383776 100.543653,58.1836837 L100.543653,55.6407245 L101.500286,55.6407245 C101.759571,55.6407245 101.967735,55.664602 102.125082,55.7123571 C102.282735,55.7601122 102.423245,55.8617449 102.546612,56.0172551 C102.622224,56.1130714 102.695082,56.2676633 102.764878,56.4807245 C102.834673,56.6940918 102.877531,56.8961327 102.893449,57.0874592 L103.341918,57.0874592 L103.341918,53.7632755 L102.893449,53.7632755 C102.873551,53.9347041 102.832531,54.1171531 102.771,54.3103163 C102.709163,54.5037857 102.634469,54.6580714 102.546612,54.7737857 C102.439163,54.909398 102.314571,55.0058265 102.173143,55.0636837 C102.031408,55.1215408 101.807327,55.1503163 101.500286,55.1503163 L100.543653,55.1503163 L100.543653,51.7783776 L101.877122,51.7783776 C102.096306,51.7783776 102.291612,51.7823571 102.463041,51.7903163 C102.634469,51.7982755 102.781714,51.8102143 102.905388,51.8261327 C103.144469,51.8579694 103.396714,52.044398 103.661816,52.3851122 C103.926918,52.7258265 104.099265,53.0478673 104.178857,53.3506224 L104.627327,53.3506224 L104.627327,51.3060306 L98.0625306,51.3060306 L98.0625306,51.7303163 C98.1699796,51.7385816 98.3144694,51.7624592 98.496,51.8022551 C98.6772245,51.842051 98.8217143,51.8879694 98.9294694,51.9397041 C99.0690612,52.0033776 99.1605918,52.0863367 99.2043673,52.1879694 C99.2481429,52.289602 99.2701837,52.4059286 99.2701837,52.5375612 L99.2701837,58.6361327 C99.2701837,58.7836837 99.2453878,58.9052143 99.1954898,59.0007245 C99.1455918,59.0965408 99.0568163,59.1742959 98.9294694,59.2339898 C98.8697755,59.2618469 98.7399796,59.2887857 98.5406939,59.3148061 C98.3414082,59.3408265 98.1819184,59.3576633 98.0625306,59.3656224 L98.0625306,59.7902143 L105.105796,59.7902143 L105.267122,57.2907245 L104.836714,57.2907245 Z M115.254061,59.3656224 C115.150286,59.3616429 115.020796,59.3457245 114.865592,59.3178673 C114.710082,59.2900102 114.580592,59.2499082 114.476816,59.1981735 C114.337224,59.1265408 114.196714,59.0337857 114.055286,58.9202143 C113.913857,58.8066429 113.755286,58.6300102 113.579878,58.3909286 C113.177327,57.8490918 112.837531,57.3886837 112.56049,57.0097041 C112.283449,56.6313367 111.935694,56.1648061 111.517224,55.6107245 C111.820286,55.5231735 112.097327,55.4163367 112.348347,55.2908265 C112.599367,55.1653163 112.814571,55.0168469 112.993959,54.8454184 C113.189265,54.662051 113.336816,54.4450102 113.436612,54.1936837 C113.536102,53.9426633 113.586,53.6536837 113.586,53.3267449 C113.586,52.9642959 113.512224,52.6541939 113.364673,52.397051 C113.217122,52.1399082 113.01998,51.9317449 112.772939,51.7722551 C112.517633,51.6087857 112.232633,51.4903163 111.917939,51.4165408 C111.602939,51.3427653 111.266204,51.3060306 110.907429,51.3060306 L106.991204,51.3060306 L106.991204,51.7303163 C107.102633,51.7385816 107.238245,51.7572551 107.397735,51.7872551 C107.557224,51.8172551 107.686714,51.8500102 107.78651,51.8858265 C107.933755,51.9418469 108.027429,52.0232755 108.067531,52.1310306 C108.107327,52.2387857 108.127224,52.3621531 108.127224,52.5017449 L108.127224,58.6361327 C108.127224,58.7916429 108.100286,58.9192959 108.046408,59.0187857 C107.992837,59.1185816 107.905898,59.1941939 107.78651,59.2459286 C107.714571,59.2780714 107.588143,59.3037857 107.406612,59.3236837 C107.225388,59.3435816 107.08702,59.3576633 106.991204,59.3656224 L106.991204,59.7902143 L110.578653,59.7902143 L110.578653,59.3656224 C110.45498,59.3616429 110.303449,59.3475612 110.124061,59.3236837 C109.944673,59.2998061 109.819163,59.2737857 109.747531,59.2459286 C109.603959,59.1902143 109.510286,59.109398 109.46651,59.0037857 C109.422735,58.8981735 109.400694,58.7757245 109.400694,58.6361327 L109.400694,55.9456224 L110.269776,55.9456224 C110.747633,56.559398 111.190592,57.1554184 111.598653,57.7333776 C112.006714,58.3113367 112.463755,58.997051 112.969469,59.7902143 L115.254061,59.7902143 L115.254061,59.3656224 Z M111.559163,54.9032755 C111.192429,55.2553163 110.734163,55.4313367 110.184061,55.4313367 L109.400694,55.4313367 L109.400694,51.7961327 L110.41702,51.7961327 C110.955184,51.7961327 111.371816,51.9464388 111.666612,52.2467449 C111.961714,52.5473571 112.109265,52.9541939 112.109265,53.4675612 C112.109265,54.0724592 111.925898,54.5509286 111.559163,54.9032755 Z M124.141102,53.571949 C123.857939,52.9979694 123.467327,52.5335816 122.969265,52.1787857 C122.602224,51.9118469 122.171816,51.6997041 121.677735,51.542051 C121.183347,51.3847041 120.681,51.3060306 120.171,51.3060306 L116.464163,51.3060306 L116.464163,51.7303163 C116.567633,51.7385816 116.691306,51.7563367 116.834878,51.7841939 C116.978143,51.812051 117.111612,51.8561327 117.235286,51.9158265 C117.370898,51.9795 117.46151,52.0652143 117.507429,52.1729694 C117.553041,52.2804184 117.576,52.4022551 117.576,52.5375612 L117.576,58.6600102 C117.576,58.8035816 117.549367,58.9260306 117.49549,59.0276633 C117.441612,59.1292959 117.35498,59.2061327 117.235286,59.2578673 C117.175592,59.2857245 117.052837,59.3108265 116.867633,59.3325612 C116.682122,59.354602 116.531816,59.3656224 116.416102,59.3656224 L116.416102,59.7902143 L119.931918,59.7902143 C120.513857,59.7902143 121.077735,59.7063367 121.623857,59.5388878 C122.16998,59.3714388 122.662224,59.1185816 123.100592,58.7797041 C123.53498,58.4408265 123.887939,58.0064388 124.158857,57.4762347 C124.430082,56.9460306 124.565388,56.3203163 124.565388,55.5987857 C124.565388,54.8215408 124.423959,54.1459286 124.141102,53.571949 Z M122.930388,57.1223571 C122.816816,57.5622551 122.636204,57.9498061 122.389163,58.2840918 C122.154061,58.6027653 121.84702,58.851949 121.468347,59.0310306 C121.089673,59.2101122 120.647327,59.2998061 120.141,59.2998061 C119.702633,59.2998061 119.377837,59.2300102 119.166612,59.0907245 C118.955082,58.9514388 118.849776,58.7004184 118.849776,58.3379694 L118.849776,51.8200102 C118.949265,51.8163367 119.101714,51.8111327 119.307122,51.8053163 C119.512224,51.7991939 119.69651,51.7961327 119.85998,51.7961327 C120.350388,51.7961327 120.795796,51.8898061 121.19651,52.0771531 C121.596918,52.2641939 121.934878,52.5210306 122.209776,52.8476633 C122.500592,53.1902143 122.721918,53.5915408 122.873449,54.0513367 C123.02498,54.5114388 123.100592,55.0263367 123.100592,55.5957245 C123.100592,56.1733776 123.043959,56.6821531 122.930388,57.1223571 Z"></path>
            </g>
        </g>
    </g>
</svg>