<?xml version="1.0" encoding="UTF-8"?>
<svg width="512px" height="512px" viewBox="0 0 512 512" version="1.1" xmlns="http://www.w3.org/2000/svg" xmlns:xlink="http://www.w3.org/1999/xlink">
    <!-- Generator: Sketch 48.1 (47250) - http://www.bohemiancoding.com/sketch -->
    <title>Artboard</title>
    <desc>Created with Sketch.</desc>
    <defs></defs>
    <g stroke="none" stroke-width="1" fill="none" fill-rule="evenodd">
        <g fill="#333333" fill-rule="nonzero">
            <g transform="translate(53.000000, 158.000000)">
                <path d="M236.2869,22.9066 C236.3289,21.9716 236.3099,21.0436 236.2249,20.1326 C235.2419,9.5016 224.1979,2.9426 215.0939,4.4346 C206.5819,5.8286 197.9399,14.0126 200.3619,23.8716 C202.2999,31.7606 209.1099,43.3326 216.8769,46.3956 C220.9449,47.9986 227.6179,41.2366 230.2369,38.5236 C233.7019,34.9346 236.0569,27.9796 236.2869,22.9066 M247.2039,86.2396 C248.9769,88.6496 250.7709,91.0456 252.6169,93.4006 C254.4299,95.7136 256.3599,98.0816 258.2329,100.2556 C268.1269,111.7376 282.8299,125.6636 297.5689,131.0846 C311.1629,136.0846 322.6969,127.0356 325.8419,113.6986 C330.6279,93.4066 314.5269,82.6666 298.7349,74.4246 C282.8499,66.1336 265.4359,56.9426 258.4389,39.3276 C255.9879,33.1566 255.4809,26.2796 258.4149,20.1746 C266.1319,4.1166 284.9179,-3.5714 301.7869,1.6496 C305.7809,2.8856 310.1579,4.6696 314.1019,6.0756 C317.8299,7.4056 321.0109,9.1666 323.3519,3.5536 C323.6379,2.8676 325.5999,2.2226 326.0819,3.0756 C326.6749,4.1246 326.4319,12.4546 326.4329,16.9856 C326.4359,27.4516 326.3749,24.2316 326.4069,34.8216 C326.4119,36.2376 326.7909,46.1086 325.3289,46.1876 C323.7339,46.2746 322.9619,42.6796 322.8699,42.2676 C320.3789,31.0556 318.2329,18.6976 309.3619,10.3376 C296.7109,-1.5844 269.0159,5.6906 269.9379,25.2596 C270.4459,36.0206 280.9429,41.6726 289.8069,45.1456 C311.8759,53.7926 337.3949,61.2046 342.8089,87.6516 C347.8009,112.0336 333.4289,139.9996 304.8719,141.2036 C273.6479,142.5196 251.9709,115.7556 233.0689,94.5346 C232.5719,93.9756 232.0729,93.4196 231.5699,92.8656 C224.6179,85.2006 217.5479,77.6136 210.6619,69.8976 C207.7539,66.6376 204.1209,63.5126 199.7039,66.2926 C188.2339,73.5116 184.0549,90.2226 185.4509,103.0766 C186.7929,115.4376 194.7649,125.4856 206.4979,130.0206 C209.6179,131.2266 212.9239,131.9186 216.2579,132.1566 C227.3829,132.9486 237.0189,130.0526 244.4579,121.9776 C247.2829,118.9106 251.0439,119.7556 253.8439,122.3556 C255.3209,123.7276 257.4389,125.5456 255.9329,127.4746 C253.1789,130.9996 247.3429,133.0156 243.3709,134.7206 C242.4419,135.1196 241.5079,135.5186 240.5549,135.8566 C234.6799,137.9396 228.5379,139.2506 222.3439,139.9106 C210.0159,141.2236 197.1369,140.0756 185.4879,135.6916 C181.3999,134.1526 177.4569,132.1936 173.8529,129.7196 C171.7419,128.2716 170.9969,128.9876 169.5139,130.1866 C155.3349,141.6526 134.2999,142.9726 117.0729,139.5466 C98.7869,135.9116 84.4949,124.4036 74.8929,108.7026 C62.4119,88.2936 61.1699,66.1726 69.0529,43.6206 C82.7869,4.3356 125.4739,-4.9094 152.8449,2.6336 C157.6479,3.9566 162.4159,5.4516 167.1079,7.1266 C171.3079,8.6246 174.1909,8.7426 176.2949,4.6076 C176.7879,3.6396 177.6779,2.8836 178.7809,3.2656 C179.8979,3.6526 179.8379,4.8786 179.8379,5.8286 L179.8379,38.6336 C179.8379,39.6356 180.1569,46.4866 178.8309,46.6166 C177.5399,46.7426 177.0009,45.4586 176.6349,44.5516 C174.3989,38.9986 173.6799,29.3476 171.0919,23.9636 C162.1999,5.4616 146.0419,2.4336 127.2109,5.7986 C109.5519,8.9546 95.2749,27.9736 91.6219,44.5946 C88.6319,58.6196 87.0959,76.8986 90.4699,90.9276 C95.5969,122.2546 122.4329,138.6886 152.5529,130.2986 C161.0669,127.9276 166.1969,121.6466 163.4459,113.1306 C157.1639,93.6826 166.2969,79.6336 182.2149,69.0596 C185.0069,67.2056 187.7749,65.4706 190.7619,63.9556 C193.2119,62.7126 196.5409,61.2986 197.7559,58.6306 C199.0049,55.8846 196.0609,53.3096 194.4779,51.4696 C190.5809,46.9386 187.6599,41.4766 185.7759,35.8126 C181.7699,23.7696 186.1349,11.3416 197.3539,5.5676 C211.5539,-1.7414 226.3449,-1.8384 240.4429,5.7796 C251.2689,11.6296 255.3659,25.1286 248.6819,35.6916 C245.3409,40.9716 239.5479,43.8426 234.1579,46.5866 C230.9559,48.2166 223.3059,51.1646 224.1689,55.8826 C224.1689,55.8826 224.1689,55.8826 224.1689,55.8836 C224.5759,58.1066 226.1449,59.7626 227.6449,61.6226 L229.1449,63.4826"></path>
                <path d="M20.1786,194.2107 C22.0266,193.0327 23.5096,191.0697 24.6276,188.3217 L23.1636,187.6187 C22.8506,188.4787 22.4476,189.2727 21.9536,190.0017 C21.4596,190.7307 20.8866,191.3817 20.2366,191.9547 C19.5866,192.5017 18.8186,192.9407 17.9346,193.2737 C17.0506,193.6057 16.0816,193.7717 15.0276,193.7717 C13.6226,193.7717 12.3516,193.4587 11.2136,192.8327 C10.0756,192.2077 9.0906,191.3407 8.2586,190.2337 C7.4256,189.1127 6.7846,187.8127 6.3366,186.3337 C5.8876,184.8547 5.6636,183.2297 5.6636,181.4567 C5.6636,179.4507 5.8776,177.6327 6.3066,176.0037 C6.7356,174.3747 7.3276,173.0327 8.0826,171.9767 C8.8756,170.8827 9.8156,170.0547 10.9006,169.4947 C11.9866,168.9347 13.1606,168.6537 14.4226,168.6537 C15.5276,168.6537 16.5096,168.9047 17.3676,169.4057 C18.2256,169.9077 18.9676,170.6007 19.5916,171.4857 C20.1506,172.2677 20.6386,173.2217 21.0546,174.3477 C21.4706,175.4737 21.7836,176.5187 21.9916,177.4817 L23.5926,177.4817 L23.4176,167.5997 L21.8546,167.5997 L21.0546,168.9277 C20.0526,168.3157 18.9986,167.8407 17.8936,167.5017 C16.7876,167.1637 15.5516,166.9937 14.1866,166.9937 C12.3516,166.9937 10.6286,167.3457 9.0146,168.0497 C7.4016,168.7537 6.0036,169.7497 4.8196,171.0397 C3.6226,172.3427 2.6866,173.8967 2.0096,175.7007 C1.3336,177.5057 0.9956,179.5157 0.9956,181.7307 C0.9956,183.9457 1.3396,185.9357 2.0296,187.7017 C2.7186,189.4667 3.6426,190.9617 4.8006,192.1867 C5.9716,193.4117 7.3146,194.3497 8.8306,195.0007 C10.3466,195.6527 11.9306,195.9787 13.5826,195.9787 C16.1326,195.9787 18.3306,195.3887 20.1786,194.2107 Z M55.7096,193.9277 C55.3836,193.9147 54.9796,193.8467 54.4986,193.7227 C54.0166,193.5987 53.6256,193.4457 53.3266,193.2637 C52.8836,192.9637 52.5386,192.6577 52.2916,192.3457 C52.0436,192.0327 51.8226,191.6227 51.6276,191.1147 L42.3886,167.2087 L40.8266,167.2087 C39.5116,170.5947 38.0136,174.4547 36.3346,178.7907 C34.6546,183.1267 33.1176,187.0327 31.7246,190.5097 C31.4516,191.1867 31.1716,191.7177 30.8846,192.1017 C30.5986,192.4857 30.1946,192.8537 29.6746,193.2047 C29.3486,193.4137 28.9316,193.5797 28.4246,193.7027 C27.9166,193.8267 27.4936,193.9017 27.1546,193.9277 L27.1546,195.3147 L37.5926,195.3147 L37.5926,193.9277 C36.5636,193.8757 35.6386,193.7067 34.8186,193.4197 C33.9986,193.1337 33.5876,192.7297 33.5876,192.2087 C33.5876,191.9877 33.6206,191.7007 33.6856,191.3497 C33.7506,190.9977 33.8686,190.5417 34.0376,189.9817 C34.2206,189.4097 34.4256,188.7847 34.6536,188.1067 C34.8826,187.4307 35.1786,186.6357 35.5436,185.7247 L45.2726,185.7247 L47.5686,191.9357 C47.6196,192.0657 47.6586,192.2157 47.6846,192.3847 C47.7106,192.5537 47.7246,192.6967 47.7246,192.8147 C47.7246,193.1007 47.3886,193.3417 46.7186,193.5367 C46.0476,193.7317 45.2046,193.8627 44.1896,193.9277 L44.1896,195.3147 L55.7096,195.3147 L55.7096,193.9277 Z M36.2236,183.9857 L40.3616,173.2307 L44.5596,183.9857 L36.2236,183.9857 Z M82.0446,167.5997 L57.8846,167.5997 L57.8846,175.1187 L59.2516,175.1187 C59.3686,174.6897 59.5766,174.1457 59.8766,173.4877 C60.1756,172.8307 60.5206,172.2087 60.9116,171.6227 C61.3026,171.0367 61.7286,170.5127 62.1906,170.0507 C62.6526,169.5887 63.0996,169.3317 63.5286,169.2787 C64.0756,169.2137 64.6486,169.1717 65.2476,169.1517 C65.8466,169.1327 66.3476,169.1227 66.7516,169.1227 L67.8846,169.1227 L67.8846,191.4667 C67.8846,192.0007 67.7836,192.4267 67.5816,192.7457 C67.3796,193.0647 67.0636,193.3097 66.6346,193.4787 C66.3476,193.5957 65.8306,193.6927 65.0816,193.7717 C64.3326,193.8497 63.7756,193.9017 63.4116,193.9277 L63.4116,195.3147 L76.4976,195.3147 L76.4976,193.9277 C76.0806,193.9147 75.4986,193.8297 74.7496,193.6737 C74.0006,193.5177 73.5096,193.3937 73.2746,193.3027 C72.8186,193.1067 72.5006,192.8307 72.3176,192.4727 C72.1356,192.1147 72.0446,191.7207 72.0446,191.2907 L72.0446,169.1227 L73.1796,169.1227 C73.7016,169.1227 74.2696,169.1357 74.8826,169.1617 C75.4966,169.1877 76.0046,169.2267 76.4096,169.2787 C76.8406,169.3447 77.2876,169.6017 77.7506,170.0507 C78.2136,170.4997 78.6416,171.0237 79.0326,171.6227 C79.4116,172.1957 79.7536,172.8047 80.0606,173.4487 C80.3676,174.0937 80.5796,174.6497 80.6966,175.1187 L82.0446,175.1187 L82.0446,167.5997 Z M102.4126,181.0957 C101.6906,180.6657 100.9386,180.2817 100.1566,179.9427 C99.2976,179.5657 98.4086,179.2107 97.4906,178.8787 C96.5726,178.5467 95.6386,178.1527 94.6886,177.6967 C93.6206,177.1897 92.8066,176.5417 92.2466,175.7537 C91.6866,174.9657 91.4066,173.9737 91.4066,172.7747 C91.4066,171.6297 91.8426,170.6597 92.7156,169.8647 C93.5876,169.0707 94.6426,168.6737 95.8796,168.6737 C97.0516,168.6737 98.0406,168.8987 98.8486,169.3477 C99.6556,169.7967 100.3396,170.3987 100.8996,171.1537 C101.4716,171.9357 101.9376,172.8077 102.2956,173.7717 C102.6536,174.7347 102.9756,175.7437 103.2626,176.7987 L104.8446,176.7987 L104.6886,167.5997 L103.1256,167.5997 L102.3246,168.9277 C101.4916,168.4067 100.5706,167.9507 99.5616,167.5607 C98.5516,167.1697 97.4096,166.9747 96.1336,166.9747 C95.0136,166.9747 93.9396,167.1667 92.9106,167.5507 C91.8826,167.9347 90.9896,168.4647 90.2346,169.1417 C89.4406,169.8577 88.8286,170.6717 88.3996,171.5827 C87.9696,172.4937 87.7546,173.4767 87.7546,174.5307 C87.7546,176.3657 88.1876,177.8537 89.0536,178.9927 C89.9196,180.1317 91.1336,181.0527 92.6956,181.7557 C93.4896,182.1187 94.4346,182.5047 95.5276,182.9127 C96.6216,183.3207 97.5916,183.6937 98.4386,184.0307 C99.6746,184.5267 100.6066,185.2537 101.2316,186.2117 C101.8566,187.1697 102.1686,188.2037 102.1686,189.3117 C102.1686,190.0677 102.0676,190.7357 101.8656,191.3157 C101.6636,191.8967 101.3546,192.4017 100.9386,192.8317 C100.5216,193.2627 99.9776,193.5947 99.3076,193.8297 C98.6366,194.0647 97.8526,194.1817 96.9536,194.1817 C95.7556,194.1817 94.7046,193.9537 93.7996,193.4977 C92.8946,193.0417 92.1036,192.4307 91.4266,191.6617 C90.7106,190.8417 90.1336,189.9597 89.6976,189.0157 C89.2616,188.0717 88.8806,187.0137 88.5556,185.8417 L86.9736,185.8417 L87.2466,195.3337 L88.8096,195.3337 L89.6496,193.9077 C90.5476,194.4547 91.6146,194.9207 92.8526,195.3047 C94.0896,195.6887 95.3256,195.8807 96.5636,195.8807 C99.2456,195.8807 101.4916,195.0867 103.3016,193.4977 C105.1116,191.9097 106.0166,189.8917 106.0166,187.4427 C106.0166,186.4147 105.8766,185.5127 105.5966,184.7377 C105.3166,183.9637 104.8836,183.2507 104.2976,182.5997 C103.7636,182.0267 103.1356,181.5247 102.4126,181.0957 Z M151.2256,177.7557 L140.7766,177.7557 L140.7766,179.1427 C141.8436,179.3637 142.6806,179.5947 143.2866,179.8357 C143.8916,180.0767 144.1946,180.4057 144.1946,180.8217 C144.1946,181.7597 143.9546,182.8437 143.4746,184.0737 C142.9936,185.3047 142.3196,186.6167 141.4496,188.0097 C140.3696,186.6947 139.2446,185.3567 138.0736,183.9957 C136.9036,182.6357 135.7066,181.1277 134.4836,179.4747 C136.1846,178.5757 137.5186,177.5637 138.4856,176.4377 C139.4526,175.3107 139.9366,173.9667 139.9366,172.4037 C139.9366,171.7527 139.8166,171.1017 139.5756,170.4507 C139.3346,169.7997 138.9856,169.2267 138.5306,168.7317 C138.0356,168.1987 137.3946,167.7657 136.6066,167.4337 C135.8186,167.1017 134.9036,166.9357 133.8626,166.9357 C132.9766,166.9357 132.1046,167.0787 131.2456,167.3647 C130.3856,167.6517 129.6566,168.0487 129.0576,168.5567 C128.4066,169.1167 127.9016,169.7707 127.5436,170.5197 C127.1856,171.2677 127.0066,172.0917 127.0066,172.9897 C127.0066,174.2527 127.2996,175.3927 127.8856,176.4077 C128.4716,177.4237 129.2926,178.6277 130.3466,180.0217 C128.0156,181.4927 126.4236,182.8827 125.5716,184.1907 C124.7186,185.4997 124.2926,186.9617 124.2926,188.5757 C124.2926,189.8777 124.5266,190.9977 124.9956,191.9357 C125.4636,192.8727 126.0756,193.6417 126.8316,194.2397 C127.6126,194.8517 128.4786,195.2977 129.4286,195.5777 C130.3796,195.8577 131.3366,195.9977 132.2996,195.9977 C133.2246,195.9977 134.0286,195.8867 134.7116,195.6657 C135.3956,195.4447 136.0756,195.1387 136.7526,194.7477 C137.3646,194.3837 137.9476,193.9507 138.5016,193.4487 C139.0546,192.9477 139.5456,192.4627 139.9756,191.9937 L142.8856,195.3147 L150.9326,195.3147 L150.9326,193.9277 C150.3216,193.9017 149.5376,193.7847 148.5816,193.5757 C147.6256,193.3677 146.8866,193.1137 146.3666,192.8147 C145.8336,192.4887 145.1896,191.9577 144.4346,191.2227 C143.6806,190.4867 143.0426,189.8067 142.5226,189.1817 C143.1596,188.3747 143.6796,187.5667 144.0826,186.7597 C144.4856,185.9527 144.8816,185.1317 145.2716,184.2987 C145.6616,183.4657 145.9956,182.7427 146.2756,182.1307 C146.5546,181.5187 146.8316,181.0567 147.1046,180.7437 C147.5216,180.2237 148.1206,179.8427 148.9016,179.6017 C149.6826,179.3607 150.4576,179.2077 151.2256,179.1427 L151.2256,177.7557 Z M136.5326,175.8707 C135.9426,176.7497 134.9796,177.5667 133.6446,178.3217 C132.6556,177.0197 131.9276,175.9097 131.4596,174.9917 C130.9906,174.0737 130.7566,173.1657 130.7566,172.2677 C130.7566,171.9417 130.8156,171.5707 130.9326,171.1537 C131.0486,170.7377 131.2376,170.3467 131.4966,169.9817 C131.7826,169.6047 132.1266,169.2917 132.5296,169.0447 C132.9316,168.7977 133.4376,168.6737 134.0476,168.6737 C135.1256,168.6737 135.9566,169.0287 136.5406,169.7377 C137.1246,170.4477 137.4176,171.4667 137.4176,172.7947 C137.4176,173.9667 137.1216,174.9917 136.5326,175.8707 Z M136.6846,192.6487 C135.7666,193.0587 134.8326,193.2637 133.8816,193.2637 C132.1896,193.2637 130.8386,192.6807 129.8296,191.5157 C128.8196,190.3507 128.3156,188.8817 128.3156,187.1107 C128.3156,185.8487 128.5336,184.7257 128.9696,183.7417 C129.4056,182.7587 130.1516,181.9027 131.2066,181.1737 C132.1176,182.4367 133.3316,183.9827 134.8486,185.8127 C136.3656,187.6417 137.7296,189.3247 138.9406,190.8607 C138.3546,191.6427 137.6026,192.2377 136.6846,192.6487 Z M183.7686,181.0957 C183.0466,180.6657 182.2946,180.2817 181.5136,179.9427 C180.6536,179.5657 179.7656,179.2107 178.8476,178.8787 C177.9296,178.5467 176.9946,178.1527 176.0446,177.6967 C174.9766,177.1897 174.1626,176.5417 173.6026,175.7537 C173.0426,174.9657 172.7636,173.9737 172.7636,172.7747 C172.7636,171.6297 173.1996,170.6597 174.0716,169.8647 C174.9436,169.0707 175.9986,168.6737 177.2356,168.6737 C178.4076,168.6737 179.3976,168.8987 180.2046,169.3477 C181.0116,169.7967 181.6956,170.3987 182.2556,171.1537 C182.8286,171.9357 183.2936,172.8077 183.6516,173.7717 C184.0096,174.7347 184.3326,175.7437 184.6186,176.7987 L186.2006,176.7987 L186.0446,167.5997 L184.4816,167.5997 L183.6816,168.9277 C182.8476,168.4067 181.9266,167.9507 180.9176,167.5607 C179.9086,167.1697 178.7656,166.9747 177.4896,166.9747 C176.3696,166.9747 175.2956,167.1667 174.2676,167.5507 C173.2386,167.9347 172.3466,168.4647 171.5916,169.1417 C170.7966,169.8577 170.1856,170.6717 169.7556,171.5827 C169.3256,172.4937 169.1106,173.4767 169.1106,174.5307 C169.1106,176.3657 169.5436,177.8537 170.4096,178.9927 C171.2756,180.1317 172.4896,181.0527 174.0526,181.7557 C174.8466,182.1187 175.7906,182.5047 176.8846,182.9127 C177.9776,183.3207 178.9476,183.6937 179.7946,184.0307 C181.0316,184.5267 181.9626,185.2537 182.5876,186.2117 C183.2126,187.1697 183.5246,188.2037 183.5246,189.3117 C183.5246,190.0677 183.4236,190.7357 183.2226,191.3157 C183.0206,191.8967 182.7106,192.4017 182.2946,192.8317 C181.8776,193.2627 181.3336,193.5947 180.6636,193.8297 C179.9926,194.0647 179.2086,194.1817 178.3106,194.1817 C177.1116,194.1817 176.0606,193.9537 175.1556,193.4977 C174.2506,193.0417 173.4596,192.4307 172.7826,191.6617 C172.0666,190.8417 171.4906,189.9597 171.0546,189.0157 C170.6176,188.0717 170.2366,187.0137 169.9116,185.8417 L168.3296,185.8417 L168.6026,195.3337 L170.1656,195.3337 L171.0056,193.9077 C171.9036,194.4547 172.9716,194.9207 174.2086,195.3047 C175.4456,195.6887 176.6826,195.8807 177.9196,195.8807 C180.6016,195.8807 182.8476,195.0867 184.6576,193.4977 C186.4676,191.9097 187.3726,189.8917 187.3726,187.4427 C187.3726,186.4147 187.2326,185.5127 186.9526,184.7377 C186.6726,183.9637 186.2396,183.2507 185.6536,182.5997 C185.1196,182.0267 184.4916,181.5247 183.7686,181.0957 Z M222.3406,193.9277 C222.0146,193.9147 221.5686,193.8497 221.0026,193.7317 C220.4366,193.6147 220.0426,193.4977 219.8206,193.3807 C219.3786,193.1467 219.0816,192.8727 218.9326,192.5607 C218.7826,192.2477 218.7076,191.8637 218.7076,191.4077 L218.7076,171.4277 C218.7076,170.9977 218.7826,170.6007 218.9326,170.2357 C219.0816,169.8717 219.3786,169.6107 219.8206,169.4547 C220.0816,169.3637 220.4756,169.2667 221.0026,169.1617 C221.5296,169.0577 221.9756,168.9997 222.3406,168.9857 L222.3406,167.5997 L210.8366,167.5997 L210.8366,168.9857 C211.2006,169.0127 211.6336,169.0907 212.1356,169.2207 C212.6366,169.3507 213.0636,169.5007 213.4146,169.6697 C213.8316,169.8647 214.1246,170.1357 214.2936,170.4807 C214.4626,170.8257 214.5476,171.2067 214.5476,171.6227 L214.5476,180.0217 L201.5206,180.0217 L201.5206,171.4277 C201.5206,170.9977 201.5946,170.6007 201.7446,170.2357 C201.8946,169.8717 202.1906,169.6107 202.6336,169.4547 C202.8936,169.3637 203.2876,169.2667 203.8156,169.1617 C204.3426,169.0577 204.7886,168.9997 205.1526,168.9857 L205.1526,167.5997 L193.6496,167.5997 L193.6496,168.9857 C194.0136,169.0127 194.4466,169.0907 194.9476,169.2207 C195.4486,169.3507 195.8756,169.5007 196.2276,169.6697 C196.6436,169.8647 196.9366,170.1357 197.1066,170.4807 C197.2756,170.8257 197.3596,171.2067 197.3596,171.6227 L197.3596,191.6227 C197.3596,192.1307 197.2686,192.5437 197.0866,192.8627 C196.9046,193.1827 196.6176,193.4197 196.2276,193.5757 C196.0056,193.6807 195.5986,193.7587 195.0066,193.8107 C194.4136,193.8627 193.9616,193.9017 193.6496,193.9277 L193.6496,195.3147 L205.1526,195.3147 L205.1526,193.9277 C204.8276,193.9147 204.3816,193.8497 203.8156,193.7317 C203.2486,193.6147 202.8546,193.4977 202.6336,193.3807 C202.1906,193.1467 201.8946,192.8727 201.7446,192.5607 C201.5946,192.2477 201.5206,191.8637 201.5206,191.4077 L201.5206,181.7597 L214.5476,181.7597 L214.5476,191.6227 C214.5476,192.1307 214.4566,192.5437 214.2746,192.8627 C214.0916,193.1827 213.8056,193.4197 213.4146,193.5757 C213.1936,193.6807 212.7866,193.7587 212.1936,193.8107 C211.6016,193.8627 211.1496,193.9017 210.8366,193.9277 L210.8366,195.3147 L222.3406,195.3147 L222.3406,193.9277 Z M250.9416,187.1497 C250.7586,187.7497 250.3386,188.6837 249.6816,189.9527 C249.0236,191.2227 248.3956,192.1697 247.7966,192.7947 C247.5756,193.0287 247.2016,193.2147 246.6736,193.3517 C246.1466,193.4877 245.6356,193.5827 245.1406,193.6347 C244.6586,193.6867 244.0666,193.7127 243.3636,193.7127 L241.6636,193.7127 C240.5826,193.7127 239.7496,193.6767 239.1636,193.6057 C238.5776,193.5337 238.1156,193.3747 237.7776,193.1277 C237.4386,192.8807 237.2106,192.5167 237.0936,192.0357 C236.9766,191.5547 236.9176,190.8987 236.9176,190.0667 L236.9176,181.7597 L240.0426,181.7597 C240.8896,181.7597 241.5696,181.8377 242.0836,181.9937 C242.5986,182.1497 243.0576,182.4817 243.4606,182.9897 C243.7076,183.3027 243.9456,183.8077 244.1736,184.5037 C244.4016,185.2007 244.5416,185.8607 244.5936,186.4857 L246.0586,186.4857 L246.0586,175.6267 L244.5936,175.6267 C244.5286,176.1867 244.3946,176.7827 244.1936,177.4137 C243.9916,178.0457 243.7476,178.5497 243.4606,178.9277 C243.1096,179.3707 242.7026,179.6857 242.2406,179.8747 C241.7776,180.0637 241.0456,180.1577 240.0426,180.1577 L236.9176,180.1577 L236.9176,169.1427 L241.2736,169.1427 C241.9896,169.1427 242.6276,169.1557 243.1876,169.1817 C243.7476,169.2077 244.2286,169.2467 244.6326,169.2987 C245.4136,169.4027 246.2376,170.0117 247.1036,171.1247 C247.9696,172.2377 248.5326,173.2897 248.7926,174.2787 L250.2576,174.2787 L250.2576,167.5997 L228.8126,167.5997 L228.8126,168.9857 C229.1636,169.0127 229.6356,169.0907 230.2286,169.2207 C230.8206,169.3507 231.2926,169.5007 231.6446,169.6697 C232.0996,169.8777 232.3996,170.1487 232.5426,170.4807 C232.6856,170.8127 232.7576,171.1927 232.7576,171.6227 L232.7576,191.5447 C232.7576,192.0267 232.6766,192.4237 232.5136,192.7357 C232.3506,193.0487 232.0606,193.3027 231.6446,193.4977 C231.4496,193.5887 231.0256,193.6767 230.3746,193.7617 C229.7236,193.8467 229.2026,193.9017 228.8126,193.9277 L228.8126,195.3147 L251.8206,195.3147 L252.3476,187.1497 L250.9416,187.1497 Z M276.7786,169.4647 C275.1706,168.2217 273.0776,167.5997 270.4996,167.5997 L257.8426,167.5997 L257.8426,168.9857 C258.1946,169.0127 258.6146,169.0607 259.1026,169.1327 C259.5906,169.2047 260.0826,169.3247 260.5776,169.4937 C261.0586,169.6767 261.3646,169.9497 261.4956,170.3147 C261.6256,170.6787 261.6906,171.0887 261.6906,171.5447 L261.6906,191.5447 C261.6906,192.0527 261.6026,192.4697 261.4266,192.7947 C261.2516,193.1207 260.9676,193.3677 260.5776,193.5367 C260.3426,193.6417 259.9296,193.7257 259.3366,193.7907 C258.7446,193.8557 258.2926,193.9017 257.9796,193.9277 L257.9796,195.3147 L269.8746,195.3147 L269.8746,193.9277 C269.3796,193.9147 268.8356,193.8687 268.2436,193.7907 C267.6506,193.7127 267.2376,193.6277 267.0026,193.5367 C266.5346,193.3547 266.2246,193.0907 266.0756,192.7457 C265.9256,192.4007 265.8506,192.0007 265.8506,191.5447 L265.8506,183.1467 L268.9566,183.1467 C270.2846,183.1467 271.5406,182.9767 272.7256,182.6387 C273.9106,182.2997 274.9976,181.7667 275.9876,181.0367 C276.9896,180.3077 277.7746,179.3867 278.3406,178.2727 C278.9076,177.1597 279.1906,175.8807 279.1906,174.4357 C279.1906,172.3647 278.3866,170.7077 276.7786,169.4647 Z M271.2706,180.7927 C270.3916,181.2287 269.2496,181.4467 267.8426,181.4467 L265.8506,181.4467 L265.8506,169.2007 L268.6046,169.2007 C269.7116,169.2007 270.6356,169.3707 271.3776,169.7087 C272.1206,170.0477 272.7186,170.5227 273.1746,171.1347 C273.6046,171.7077 273.9076,172.3777 274.0836,173.1467 C274.2586,173.9147 274.3466,174.6697 274.3466,175.4117 C274.3466,175.9457 274.2746,176.5477 274.1316,177.2187 C273.9886,177.8897 273.6956,178.5367 273.2526,179.1617 C272.8106,179.8127 272.1496,180.3567 271.2706,180.7927 Z M313.8656,193.9277 C313.5396,193.9147 313.0936,193.8497 312.5276,193.7317 C311.9616,193.6147 311.5676,193.4977 311.3456,193.3807 C310.9036,193.1467 310.6066,192.8727 310.4576,192.5607 C310.3076,192.2477 310.2326,191.8637 310.2326,191.4077 L310.2326,171.4277 C310.2326,170.9977 310.3076,170.6007 310.4576,170.2357 C310.6066,169.8717 310.9036,169.6107 311.3456,169.4547 C311.6066,169.3637 312.0006,169.2667 312.5276,169.1617 C313.0546,169.0577 313.5006,168.9997 313.8656,168.9857 L313.8656,167.5997 L302.3616,167.5997 L302.3616,168.9857 C302.7256,169.0127 303.1586,169.0907 303.6606,169.2207 C304.1616,169.3507 304.5886,169.5007 304.9396,169.6697 C305.3566,169.8647 305.6496,170.1357 305.8186,170.4807 C305.9876,170.8257 306.0726,171.2067 306.0726,171.6227 L306.0726,180.0217 L293.0456,180.0217 L293.0456,171.4277 C293.0456,170.9977 293.1196,170.6007 293.2696,170.2357 C293.4196,169.8717 293.7156,169.6107 294.1586,169.4547 C294.4186,169.3637 294.8126,169.2667 295.3406,169.1617 C295.8676,169.0577 296.3136,168.9997 296.6776,168.9857 L296.6776,167.5997 L285.1746,167.5997 L285.1746,168.9857 C285.5386,169.0127 285.9716,169.0907 286.4726,169.2207 C286.9736,169.3507 287.4006,169.5007 287.7526,169.6697 C288.1686,169.8647 288.4616,170.1357 288.6316,170.4807 C288.8006,170.8257 288.8846,171.2067 288.8846,171.6227 L288.8846,191.6227 C288.8846,192.1307 288.7936,192.5437 288.6116,192.8627 C288.4296,193.1827 288.1426,193.4197 287.7526,193.5757 C287.5306,193.6807 287.1236,193.7587 286.5316,193.8107 C285.9386,193.8627 285.4866,193.9017 285.1746,193.9277 L285.1746,195.3147 L296.6776,195.3147 L296.6776,193.9277 C296.3526,193.9147 295.9066,193.8497 295.3406,193.7317 C294.7736,193.6147 294.3796,193.4977 294.1586,193.3807 C293.7156,193.1467 293.4196,192.8727 293.2696,192.5607 C293.1196,192.2477 293.0456,191.8637 293.0456,191.4077 L293.0456,181.7597 L306.0726,181.7597 L306.0726,191.6227 C306.0726,192.1307 305.9816,192.5437 305.7996,192.8627 C305.6166,193.1827 305.3306,193.4197 304.9396,193.5757 C304.7186,193.6807 304.3116,193.7587 303.7186,193.8107 C303.1266,193.8627 302.6746,193.9017 302.3616,193.9277 L302.3616,195.3147 L313.8656,195.3147 L313.8656,193.9277 Z M342.4666,187.1497 C342.2836,187.7497 341.8636,188.6837 341.2066,189.9527 C340.5486,191.2227 339.9206,192.1697 339.3216,192.7947 C339.1006,193.0287 338.7266,193.2147 338.1986,193.3517 C337.6716,193.4877 337.1606,193.5827 336.6656,193.6347 C336.1836,193.6867 335.5916,193.7127 334.8886,193.7127 L333.1886,193.7127 C332.1076,193.7127 331.2746,193.6767 330.6886,193.6057 C330.1026,193.5337 329.6406,193.3747 329.3026,193.1277 C328.9636,192.8807 328.7356,192.5167 328.6186,192.0357 C328.5016,191.5547 328.4426,190.8987 328.4426,190.0667 L328.4426,181.7597 L331.5676,181.7597 C332.4146,181.7597 333.0946,181.8377 333.6086,181.9937 C334.1236,182.1497 334.5826,182.4817 334.9856,182.9897 C335.2326,183.3027 335.4706,183.8077 335.6986,184.5037 C335.9266,185.2007 336.0666,185.8607 336.1186,186.4857 L337.5836,186.4857 L337.5836,175.6267 L336.1186,175.6267 C336.0536,176.1867 335.9196,176.7827 335.7186,177.4137 C335.5166,178.0457 335.2726,178.5497 334.9856,178.9277 C334.6346,179.3707 334.2276,179.6857 333.7656,179.8747 C333.3026,180.0637 332.5706,180.1577 331.5676,180.1577 L328.4426,180.1577 L328.4426,169.1427 L332.7986,169.1427 C333.5146,169.1427 334.1526,169.1557 334.7126,169.1817 C335.2726,169.2077 335.7536,169.2467 336.1576,169.2987 C336.9386,169.4027 337.7626,170.0117 338.6286,171.1247 C339.4946,172.2377 340.0576,173.2897 340.3176,174.2787 L341.7826,174.2787 L341.7826,167.5997 L320.3376,167.5997 L320.3376,168.9857 C320.6886,169.0127 321.1606,169.0907 321.7536,169.2207 C322.3456,169.3507 322.8176,169.5007 323.1696,169.6697 C323.6256,169.8777 323.9246,170.1487 324.0676,170.4807 C324.2106,170.8127 324.2826,171.1927 324.2826,171.6227 L324.2826,191.5447 C324.2826,192.0267 324.2016,192.4237 324.0386,192.7357 C323.8756,193.0487 323.5856,193.3027 323.1696,193.4977 C322.9746,193.5887 322.5506,193.6767 321.8996,193.7617 C321.2486,193.8467 320.7276,193.9017 320.3376,193.9277 L320.3376,195.3147 L343.3456,195.3147 L343.8726,187.1497 L342.4666,187.1497 Z M376.4966,193.9277 C376.1576,193.9147 375.7346,193.8627 375.2276,193.7717 C374.7196,193.6807 374.2966,193.5497 373.9576,193.3807 C373.5016,193.1467 373.0426,192.8437 372.5806,192.4727 C372.1186,192.1017 371.6006,191.5247 371.0276,190.7437 C369.7126,188.9737 368.6026,187.4697 367.6976,186.2317 C366.7926,184.9957 365.6566,183.4717 364.2896,181.6617 C365.2796,181.3757 366.1846,181.0267 367.0046,180.6167 C367.8246,180.2067 368.5276,179.7217 369.1136,179.1617 C369.7516,178.5627 370.2336,177.8537 370.5596,177.0327 C370.8846,176.2127 371.0476,175.2687 371.0476,174.2007 C371.0476,173.0167 370.8066,172.0037 370.3246,171.1637 C369.8426,170.3237 369.1986,169.6437 368.3916,169.1227 C367.5576,168.5887 366.6266,168.2017 365.5986,167.9607 C364.5696,167.7197 363.4696,167.5997 362.2976,167.5997 L349.5046,167.5997 L349.5046,168.9857 C349.8686,169.0127 350.3116,169.0737 350.8326,169.1717 C351.3536,169.2697 351.7766,169.3767 352.1026,169.4937 C352.5836,169.6767 352.8896,169.9427 353.0206,170.2947 C353.1506,170.6467 353.2156,171.0497 353.2156,171.5057 L353.2156,191.5447 C353.2156,192.0527 353.1276,192.4697 352.9516,192.7947 C352.7766,193.1207 352.4926,193.3677 352.1026,193.5367 C351.8676,193.6417 351.4546,193.7257 350.8616,193.7907 C350.2696,193.8557 349.8176,193.9017 349.5046,193.9277 L349.5046,195.3147 L361.2236,195.3147 L361.2236,193.9277 C360.8196,193.9147 360.3246,193.8687 359.7386,193.7907 C359.1526,193.7127 358.7426,193.6277 358.5086,193.5367 C358.0396,193.3547 357.7336,193.0907 357.5906,192.7457 C357.4476,192.4007 357.3756,192.0007 357.3756,191.5447 L357.3756,182.7557 L360.2146,182.7557 C361.7756,184.7607 363.2226,186.7077 364.5556,188.5957 C365.8886,190.4837 367.3816,192.7237 369.0336,195.3147 L376.4966,195.3147 L376.4966,193.9277 Z M364.4266,179.3507 C363.2286,180.5007 361.7316,181.0757 359.9346,181.0757 L357.3756,181.0757 L357.3756,169.2007 L360.6956,169.2007 C362.4536,169.2007 363.8146,169.6917 364.7776,170.6727 C365.7416,171.6547 366.2236,172.9837 366.2236,174.6607 C366.2236,176.6367 365.6246,178.1997 364.4266,179.3507 Z M405.5276,175.0017 C404.6026,173.1267 403.3266,171.6097 401.6996,170.4507 C400.5006,169.5787 399.0946,168.8857 397.4806,168.3707 C395.8656,167.8567 394.2246,167.5997 392.5586,167.5997 L380.4496,167.5997 L380.4496,168.9857 C380.7876,169.0127 381.1916,169.0707 381.6606,169.1617 C382.1286,169.2527 382.5646,169.3967 382.9686,169.5917 C383.4116,169.7997 383.7076,170.0797 383.8576,170.4317 C384.0066,170.7827 384.0816,171.1807 384.0816,171.6227 L384.0816,191.6227 C384.0816,192.0917 383.9946,192.4917 383.8186,192.8237 C383.6426,193.1557 383.3596,193.4067 382.9686,193.5757 C382.7736,193.6667 382.3726,193.7487 381.7676,193.8197 C381.1616,193.8917 380.6706,193.9277 380.2926,193.9277 L380.2926,195.3147 L391.7776,195.3147 C393.6786,195.3147 395.5206,195.0407 397.3046,194.4937 C399.0886,193.9467 400.6966,193.1207 402.1286,192.0137 C403.5476,190.9067 404.7006,189.4877 405.5856,187.7557 C406.4716,186.0237 406.9136,183.9797 406.9136,181.6227 C406.9136,179.0837 406.4516,176.8767 405.5276,175.0017 Z M401.5726,186.5997 C401.2016,188.0367 400.6116,189.3027 399.8046,190.3947 C399.0366,191.4357 398.0336,192.2497 396.7966,192.8347 C395.5596,193.4197 394.1146,193.7127 392.4606,193.7127 C391.0286,193.7127 389.9676,193.4847 389.2776,193.0297 C388.5866,192.5747 388.2426,191.7547 388.2426,190.5707 L388.2426,169.2787 C388.5676,169.2667 389.0656,169.2497 389.7366,169.2307 C390.4066,169.2107 391.0086,169.2007 391.5426,169.2007 C393.1446,169.2007 394.5996,169.5067 395.9086,170.1187 C397.2166,170.7297 398.3206,171.5687 399.2186,172.6357 C400.1686,173.7547 400.8916,175.0657 401.3866,176.5677 C401.8816,178.0707 402.1286,179.7527 402.1286,181.6127 C402.1286,183.4997 401.9436,185.1617 401.5726,186.5997 Z"></path>
            </g>
        </g>
    </g>
</svg>